<mxfile host="Electron" agent="Mozilla/5.0 (Windows NT 10.0; Win64; x64) AppleWebKit/537.36 (KHTML, like Gecko) draw.io/24.7.8 Chrome/128.0.6613.36 Electron/32.0.1 Safari/537.36" version="24.7.8">
  <diagram name="Page-1" id="OKyIDHOfB-IGeBRTUP0B">
    <mxGraphModel dx="1000" dy="591" grid="1" gridSize="10" guides="1" tooltips="1" connect="1" arrows="1" fold="1" page="1" pageScale="1" pageWidth="827" pageHeight="1169" math="0" shadow="0">
      <root>
        <mxCell id="0" />
        <mxCell id="1" parent="0" />
        <mxCell id="sWJi-CulQdv02gXPVwKX-5" value="" style="edgeStyle=orthogonalEdgeStyle;rounded=0;orthogonalLoop=1;jettySize=auto;html=1;" edge="1" parent="1" source="sWJi-CulQdv02gXPVwKX-1" target="sWJi-CulQdv02gXPVwKX-4">
          <mxGeometry relative="1" as="geometry" />
        </mxCell>
        <mxCell id="sWJi-CulQdv02gXPVwKX-20" value="" style="edgeStyle=orthogonalEdgeStyle;rounded=0;orthogonalLoop=1;jettySize=auto;html=1;" edge="1" parent="1" source="sWJi-CulQdv02gXPVwKX-1" target="sWJi-CulQdv02gXPVwKX-15">
          <mxGeometry relative="1" as="geometry">
            <mxPoint x="230" y="80" as="targetPoint" />
            <Array as="points">
              <mxPoint x="340" y="80" />
            </Array>
          </mxGeometry>
        </mxCell>
        <mxCell id="sWJi-CulQdv02gXPVwKX-1" value="Registrovani korisnik" style="shape=umlActor;verticalLabelPosition=bottom;verticalAlign=top;html=1;outlineConnect=0;" vertex="1" parent="1">
          <mxGeometry x="120" y="50" width="30" height="60" as="geometry" />
        </mxCell>
        <mxCell id="sWJi-CulQdv02gXPVwKX-7" value="" style="edgeStyle=orthogonalEdgeStyle;rounded=0;orthogonalLoop=1;jettySize=auto;html=1;" edge="1" parent="1" source="sWJi-CulQdv02gXPVwKX-4" target="sWJi-CulQdv02gXPVwKX-6">
          <mxGeometry relative="1" as="geometry" />
        </mxCell>
        <mxCell id="sWJi-CulQdv02gXPVwKX-4" value="&lt;div&gt;&lt;br&gt;&lt;/div&gt;Dodavanje&lt;div&gt;novog&amp;nbsp;&lt;/div&gt;&lt;div&gt;pitanja&lt;/div&gt;" style="ellipse;whiteSpace=wrap;html=1;verticalAlign=top;" vertex="1" parent="1">
          <mxGeometry x="75" y="180" width="120" height="80" as="geometry" />
        </mxCell>
        <mxCell id="sWJi-CulQdv02gXPVwKX-6" value="&lt;div&gt;&lt;br&gt;&lt;/div&gt;&lt;div&gt;Izmena&lt;/div&gt;&lt;div&gt;postojeceg&lt;/div&gt;&lt;div&gt;piranja&lt;/div&gt;" style="ellipse;whiteSpace=wrap;html=1;verticalAlign=top;" vertex="1" parent="1">
          <mxGeometry x="75" y="340" width="120" height="80" as="geometry" />
        </mxCell>
        <mxCell id="sWJi-CulQdv02gXPVwKX-16" value="" style="edgeStyle=orthogonalEdgeStyle;rounded=0;orthogonalLoop=1;jettySize=auto;html=1;" edge="1" parent="1" source="sWJi-CulQdv02gXPVwKX-8" target="sWJi-CulQdv02gXPVwKX-15">
          <mxGeometry relative="1" as="geometry">
            <Array as="points">
              <mxPoint x="400" y="80" />
            </Array>
          </mxGeometry>
        </mxCell>
        <mxCell id="sWJi-CulQdv02gXPVwKX-8" value="Prijavljeni korisnik" style="shape=umlActor;verticalLabelPosition=bottom;verticalAlign=top;html=1;outlineConnect=0;" vertex="1" parent="1">
          <mxGeometry x="570" y="50" width="30" height="60" as="geometry" />
        </mxCell>
        <mxCell id="sWJi-CulQdv02gXPVwKX-29" value="" style="edgeStyle=orthogonalEdgeStyle;rounded=0;orthogonalLoop=1;jettySize=auto;html=1;" edge="1" parent="1" source="sWJi-CulQdv02gXPVwKX-15" target="sWJi-CulQdv02gXPVwKX-28">
          <mxGeometry relative="1" as="geometry" />
        </mxCell>
        <mxCell id="sWJi-CulQdv02gXPVwKX-15" value="&lt;div&gt;&lt;br&gt;&lt;/div&gt;Igranje&lt;div&gt;kviza&lt;/div&gt;" style="ellipse;whiteSpace=wrap;html=1;verticalAlign=top;" vertex="1" parent="1">
          <mxGeometry x="294" y="40" width="116" height="80" as="geometry" />
        </mxCell>
        <mxCell id="sWJi-CulQdv02gXPVwKX-28" value="Pregled&amp;nbsp;&lt;div&gt;rezultata&lt;/div&gt;" style="ellipse;whiteSpace=wrap;html=1;" vertex="1" parent="1">
          <mxGeometry x="292" y="200" width="120" height="80" as="geometry" />
        </mxCell>
      </root>
    </mxGraphModel>
  </diagram>
</mxfile>
